<?xml version="1.0" encoding="UTF-8"?>
<svg id="Calque_2" data-name="Calque 2" xmlns="http://www.w3.org/2000/svg" viewBox="0 0 892 287.97">
  <defs>
    <style>
      .cls-1 {
        fill: none;
      }

      .cls-1, .cls-2 {
        stroke-width: 0px;
      }

      .cls-2 {
        fill: #fff;
      }
    </style>
  </defs>
  <g id="Calque_1-2" data-name="Calque 1">
    <path class="cls-2" d="m149.4,56.85v164.84c0,23.99-21.26,43.5-47.4,43.5H32.17v13.37H0v-82.97h32.17v13.37h60.99V69.6h-60.99v13.35H0V0h32.17v13.37h69.83c26.14,0,47.4,19.51,47.4,43.48Z"/>
    <path class="cls-2" d="m263.18,145.33c-1.42-5.05-4.07-9.96-7.94-14.71-3.88-4.75-9.4-8.61-16.52-11.58-7.13-2.95-15.67-4.44-25.61-4.44-11.85,0-21.59,2.31-29.19,6.91-7.62,4.61-12.88,10.73-15.81,18.33s-4.39,18.17-4.39,31.71v37.31c0,12.36.81,21.62,2.42,27.81,1.6,6.18,4.3,11.45,8.06,15.8,3.77,4.35,9.05,7.6,15.86,9.76,6.81,2.15,15.1,3.24,24.9,3.24,8.78,0,16.55-1.26,23.32-3.79,6.77-2.52,12.31-6.43,16.62-11.73,4.32-5.31,7.13-11.02,8.45-17.12,1.32-6.11,1.97-15.71,1.97-28.8v-35.66c0-10.32-.7-18-2.14-23.04Zm-48.66,95.47c-14.4,0-26.07-15.15-26.07-33.84s26.07-67.69,26.07-67.69c0,0,26.08,49,26.08,67.69s-11.68,33.84-26.08,33.84Z"/>
    <path class="cls-2" d="m652.88,192.62h-57.38v31.49c0,6.58.47,10.83,1.43,12.73.95,1.9,2.78,2.85,5.49,2.85,3.36,0,5.61-1.26,6.75-3.79,1.13-2.52,1.7-7.41,1.7-14.65v-19.2h42.02v10.75c0,9-.57,15.91-1.7,20.74-1.14,4.83-3.79,9.98-7.95,15.47-4.17,5.49-9.46,9.6-15.85,12.34-6.4,2.74-14.43,4.11-24.08,4.11s-17.63-1.35-24.8-4.06c-7.17-2.71-12.75-6.42-16.73-11.14-3.99-4.72-6.75-9.91-8.28-15.58-1.54-5.67-2.3-13.92-2.3-24.74v-42.46c0-12.73,1.72-22.77,5.16-30.12,3.44-7.35,9.07-12.98,16.9-16.9,7.83-3.91,16.82-5.87,26.99-5.87,12.43,0,22.69,2.36,30.78,7.08,8.08,4.72,13.75,10.97,17.01,18.76,3.25,7.79,4.88,18.75,4.88,32.86v19.31Zm-44.44-23.7v-10.64c0-7.53-.4-12.4-1.21-14.59-.81-2.19-2.45-3.29-4.94-3.29-3.07,0-4.98.93-5.71,2.8-.73,1.87-1.1,6.9-1.1,15.09v10.64h12.95Z"/>
    <path class="cls-2" d="m355.43,117.24c-7.5-3.51-16.61-5.27-27.33-5.27-6.81,0-13.08.88-18.84,2.63-2.85.86-5.57,1.95-8.15,3.24-7.83,3.92-13.46,9.55-16.89,16.89-3.45,7.36-5.16,17.39-5.16,30.13v42.46c0,2.3.04,4.48.1,6.55.38,6.14,1.25,11.1,2.64,14.91,1.89,5.23,5.43,9.46,10.58,12.67,5.16,3.21,11.73,4.82,19.7,4.82,4.61,0,9.01-.88,13.22-2.64,4.21-1.75,8.2-4.36,12.02-7.81v10.99c0,6.3-.55,10.44-1.65,12.41-1.1,1.99-3.33,2.97-6.7,2.97-4.68,0-7.02-3.21-7.02-9.65h-43.01c.29,14.04,4.72,23.46,13.27,28.26,8.56,4.78,19.9,7.19,34.01,7.19,11.48,0,21.02-1.31,28.59-3.89,7.58-2.6,13.48-6.38,17.72-11.3,4.25-4.94,6.72-9.63,7.41-14.04.69-4.43,1.05-14.21,1.05-29.36v-112.13h-25.55Zm-18.88,83.72c0,8.27-.44,13.56-1.32,15.91-.88,2.34-2.78,3.5-5.71,3.5-2.56,0-4.25-.97-5.04-2.9-.57-1.38-.94-3.89-1.1-7.56-.07-1.5-.1-3.21-.1-5.11v-48.94c0-1.92.05-3.64.16-5.16h0c.13-5.32.47-8.69,1.05-10.15.73-1.86,2.63-2.8,5.71-2.8,2.48,0,4.13,1.1,4.94,3.29.33.88.57,2.16.76,3.88,0,.01.01.03.01.04.43,2.27.65,5.91.65,10.9v45.1Z"/>
    <path class="cls-2" d="m765.35,172.21h-41.8v-16.79c0-5.85-.48-9.82-1.43-11.9-.95-2.08-2.71-3.13-5.27-3.13s-4.28.92-5.16,2.74c-.88,1.83-1.32,5.92-1.32,12.29v68.69c0,5.19.66,9.09,1.97,11.69,1.32,2.6,3.25,3.9,5.82,3.9,3,0,5.03-1.35,6.09-4.06,1.06-2.71,1.59-7.83,1.59-15.36v-17.34h39.5c-.07,11.63-.49,20.35-1.26,26.17s-3.22,11.78-7.35,17.88c-4.13,6.11-9.53,10.72-16.18,13.82-6.66,3.11-14.89,4.66-24.69,4.66-12.51,0-22.42-2.14-29.73-6.42-7.32-4.28-12.49-10.28-15.53-17.99-3.04-7.72-4.55-18.67-4.55-32.86v-41.37c0-12.36,1.24-21.69,3.73-27.98,2.49-6.29,7.79-11.9,15.91-16.84,8.12-4.94,17.99-7.41,29.62-7.41s21.43,2.45,29.62,7.35c8.19,4.9,13.64,11.08,16.35,18.54,2.7,7.46,4.06,18.03,4.06,31.71Z"/>
    <rect class="cls-2" x="396.79" y="117.24" width="45.64" height="145.6"/>
    <polygon class="cls-2" points="526.41 139.65 526.41 149.97 482.83 159.01 482.83 148.69 526.41 139.65"/>
    <polygon class="cls-2" points="526.41 161.89 526.41 172.21 482.83 181.25 482.83 170.93 526.41 161.89"/>
    <polygon class="cls-2" points="526.41 184.13 526.41 194.45 482.83 203.49 482.83 193.17 526.41 184.13"/>
    <polygon class="cls-2" points="526.41 206.37 526.41 216.69 482.83 225.73 482.83 215.41 526.41 206.37"/>
    <polygon class="cls-2" points="526.41 228.61 526.41 238.93 482.83 247.97 482.83 237.65 526.41 228.61"/>
    <polygon class="cls-2" points="482.83 259.89 526.41 250.85 526.41 262.83 482.83 262.83 482.83 259.89"/>
    <path id="Reflet_goutte" data-name="Reflet goutte" class="cls-2" d="m232.79,213.19c-1.91,10.63-7.12,16.99-15.64,19.09"/>
    <path class="cls-2" d="m612.45,103.55h-72.12l.54.48s-.05.03-.05.05v33.85h-72.38v-33.85s-.04-.05-.07-.05l.54-.48h-72.12v-27.46c0-5.15,6.17-9.32,13.78-9.32h33.55l44.17,19.45,4.05-3.62s.01-.01.03-.01h4.39s.07-.03.07-.07v-3.66c0-4.43,3.62-8.39,8.05-8.26,2.02.08,3.89.94,5.24,2.29,1.42,1.41,2.3,3.37,2.3,5.51v4.12s.04.07.07.07h4.35s.04,0,.05.01l4.05,3.62,44.18-19.45h33.56c7.6,0,13.77,4.17,13.77,9.32v27.46Z"/>
    <g>
      <polygon class="cls-2" points="881.73 191.27 846.74 191.27 846.74 218.43 827.98 208.54 819.22 203.92 795.22 191.27 827.98 191.27 827.98 162.94 846.74 172.83 855.92 177.66 881.73 191.27"/>
      <polyline class="cls-1" points="825.1 190.68 846.61 190.69 858.1 190.69"/>
      <polygon class="cls-2" points="812.18 114.61 812.18 175.19 778.27 175.18 778.27 114.61 812.18 114.61"/>
      <polygon class="cls-2" points="892 206.15 892 265.18 858.1 265.18 858.1 206.14 892 206.15"/>
      <polygon class="cls-2" points="812.17 224.04 812.17 265.18 778.27 265.18 778.27 206.17 799.6 217.41 812.17 224.04"/>
      <polygon class="cls-2" points="891.99 114.26 891.99 173.29 890.57 173.29 873.69 164.39 858.09 156.18 858.09 114.25 891.99 114.26"/>
    </g>
  </g>
</svg>