<?xml version="1.0" encoding="UTF-8"?>
<svg id="Calque_2" data-name="Calque 2" xmlns="http://www.w3.org/2000/svg" viewBox="0 0 490.14 958.14">
  <defs>
    <style>
      .cls-1 {
        opacity: .2;
      }

      .cls-2 {
        fill: #afafaf;
        stroke-width: 0px;
      }
    </style>
  </defs>
  <g id="Calque_1-2" data-name="Calque 1">
    <g class="cls-1">
      <circle class="cls-2" cx="377.68" cy="80.15" r="14.95"/>
      <circle class="cls-2" cx="429.98" cy="80.15" r="14.95"/>
      <circle class="cls-2" cx="377.68" cy="237.44" r="14.95"/>
      <circle class="cls-2" cx="429.98" cy="237.44" r="14.95"/>
      <circle class="cls-2" cx="377.68" cy="394.72" r="14.95"/>
      <circle class="cls-2" cx="429.98" cy="394.72" r="14.95"/>
      <path class="cls-2" d="m459.87,0h-112.84c-16.7,0-30.26,13.55-30.26,30.26v416.97c0,16.71,13.56,30.27,30.26,30.27h31.15c-.56,1.36-.87,2.85-.87,4.4,0,6.37,5.21,11.59,11.57,11.59h13.36c6.74,18.83-3.5,39.46-17.48,52.48-16.99,15.82-40.04,25.42-61.32,33.9-46.22,18.39-94.88,29.82-140.88,48.82-82.52,34.06-162.46,96.8-179.55,189.42-8.91,48.27,1.91,99.6,33.61,137.63,5.92,7.1,16.02-3.1,10.15-10.14-27.7-33.24-37.6-79.51-30.27-121.75,7.65-44.08,31.8-83.73,63.74-114.53,33.63-32.43,75.53-55.31,118.93-71.88,46.16-17.61,94.43-29.23,139.95-48.64,22.65-9.65,46.92-20.94,63-40.28,12.79-15.36,19.51-35.8,14.92-55.02h1c3.18,0,6.09-1.3,8.18-3.41,2.1-2.09,3.41-5,3.41-8.18,0-1.55-.31-3.04-.88-4.4h31.15c16.71,0,30.26-13.56,30.26-30.27V30.26c0-16.71-13.55-30.26-30.26-30.26Zm-57.15,457.49c-34.67,0-62.77-28.11-62.77-62.77s28.1-62.77,62.77-62.77,62.77,28.1,62.77,62.77-28.11,62.77-62.77,62.77Zm0-157.28c-34.67,0-62.77-28.11-62.77-62.77s28.1-62.77,62.77-62.77,62.77,28.1,62.77,62.77-28.11,62.77-62.77,62.77Zm0-157.28c-34.67,0-62.77-28.11-62.77-62.77s28.1-62.77,62.77-62.77,62.77,28.1,62.77,62.77-28.11,62.77-62.77,62.77Z"/>
    </g>
  </g>
</svg>