<?xml version="1.0" encoding="UTF-8"?>
<svg id="Calque_1" data-name="Calque 1" xmlns="http://www.w3.org/2000/svg" viewBox="0 0 2574.42 958.14">
  <defs>
    <style>
      .cls-1, .cls-2 {
        stroke-width: 0px;
      }

      .cls-2 {
        fill: #fff;
      }
    </style>
  </defs>
  <g>
    <circle class="cls-2" cx="377.68" cy="394.72" r="14.95"/>
    <circle class="cls-2" cx="429.98" cy="394.72" r="14.95"/>
    <circle class="cls-2" cx="377.68" cy="237.44" r="14.95"/>
    <circle class="cls-2" cx="429.98" cy="237.44" r="14.95"/>
    <circle class="cls-2" cx="377.68" cy="80.15" r="14.95"/>
    <circle class="cls-2" cx="429.98" cy="80.15" r="14.95"/>
    <circle class="cls-2" cx="377.68" cy="80.15" r="14.95"/>
    <circle class="cls-2" cx="429.98" cy="80.15" r="14.95"/>
    <circle class="cls-1" cx="377.68" cy="80.15" r="14.95"/>
    <circle class="cls-1" cx="429.98" cy="80.15" r="14.95"/>
    <circle class="cls-2" cx="377.68" cy="237.44" r="14.95"/>
    <circle class="cls-2" cx="429.98" cy="237.44" r="14.95"/>
    <circle class="cls-1" cx="377.68" cy="237.44" r="14.95"/>
    <circle class="cls-1" cx="429.98" cy="237.44" r="14.95"/>
    <circle class="cls-2" cx="377.68" cy="394.72" r="14.95"/>
    <circle class="cls-2" cx="429.98" cy="394.72" r="14.95"/>
    <circle class="cls-1" cx="377.68" cy="394.72" r="14.95"/>
    <circle class="cls-1" cx="429.98" cy="394.72" r="14.95"/>
    <path class="cls-1" d="m459.87,0h-112.84c-16.7,0-30.26,13.55-30.26,30.26v416.97c0,16.71,13.56,30.27,30.26,30.27h31.15c-.56,1.36-.87,2.85-.87,4.4,0,6.37,5.21,11.59,11.57,11.59h13.36c6.74,18.83-3.5,39.46-17.48,52.48-16.99,15.82-40.04,25.42-61.32,33.9-46.22,18.39-94.88,29.82-140.88,48.82-82.52,34.06-162.46,96.8-179.55,189.42-8.91,48.27,1.91,99.6,33.61,137.63,5.92,7.1,16.02-3.1,10.15-10.14-27.7-33.24-37.6-79.51-30.27-121.75,7.65-44.08,31.8-83.73,63.74-114.53,33.63-32.43,75.53-55.31,118.93-71.88,46.16-17.61,94.43-29.23,139.95-48.64,22.65-9.65,46.92-20.94,63-40.28,12.79-15.36,19.51-35.8,14.92-55.02h1c3.18,0,6.09-1.3,8.18-3.41,2.1-2.09,3.41-5,3.41-8.18,0-1.55-.31-3.04-.88-4.4h31.15c16.71,0,30.26-13.56,30.26-30.27V30.26c0-16.71-13.55-30.26-30.26-30.26Zm-57.15,457.49c-34.67,0-62.77-28.11-62.77-62.77s28.1-62.77,62.77-62.77,62.77,28.1,62.77,62.77-28.11,62.77-62.77,62.77Zm0-157.28c-34.67,0-62.77-28.11-62.77-62.77s28.1-62.77,62.77-62.77,62.77,28.1,62.77,62.77-28.11,62.77-62.77,62.77Zm0-157.28c-34.67,0-62.77-28.11-62.77-62.77s28.1-62.77,62.77-62.77,62.77,28.1,62.77,62.77-28.11,62.77-62.77,62.77Z"/>
  </g>
  <path class="cls-1" d="m2569.38,917.68c-9.17,3.27-18.46,6.21-27.85,8.77-76.82,20.93-158.42,17.32-235.43-.65-38.9-9.06-76.82-21.92-113.58-37.51-35.04-14.85-69.18-32.34-100.02-54.79-30.31-22.06-59.03-48.99-77.41-82.05-19.64-35.31-22.84-75.74-16.27-115.07,13.07-78.31,60.93-142.32,107.33-204.2,22.44-29.92,44.51-61.7,53.5-98.56,8.88-36.42,3.35-74-3.93-110.36h-16.1l-43.28-49.3v-45.45h-7.53c-8.11,0-14.74-6.63-14.74-14.74v-12.65c0-8.11,6.63-14.74,14.74-14.74h15.47V28.65c0-6.19,5.07-11.26,11.26-11.26,3.09,0,5.92,1.26,7.96,3.3,2.05,2.05,3.32,4.86,3.32,7.96v57.74h65.55V28.65c0-6.19,5.07-11.26,11.27-11.26,3.1,0,5.91,1.26,7.95,3.3,2.05,2.05,3.32,4.86,3.32,7.96v57.74h16.51c8.11,0,14.74,6.63,14.74,14.74v12.65c0,8.11-6.63,14.74-14.74,14.74h-7.54v45.45l-43.28,49.3h-9.91c.61,3.12,1.22,6.26,1.78,9.4,7.27,40.05,10.4,81.4-3.23,120.51-12.24,35.11-34.35,65.4-56.61,94.74-45.54,60.03-92.36,125.45-101.03,202.57-2.24,19.93-1.87,40.31,2.94,59.85,4.48,18.29,12.94,35.03,23.84,50.33,21.63,30.38,51.67,54.86,83.01,74.64,31.67,19.97,65.9,35.84,100.83,49.21,36.8,14.09,74.77,25.23,113.52,32.5,76.34,14.33,156.09,12.66,229.74-13.53,8.98-3.19,12.8,11.05,3.92,14.21Z"/>
  <g>
    <path class="cls-1" d="m1515,285.2s-49.22-37.95-117.64-52.22v40.47h-243.59v-36.32h-37v67.4h-67.81c-18.68,0-33.82-15.14-33.82-33.84V113.02c0-18.7,15.14-33.84,33.82-33.84h67.81v55.24h37v-38.11h243.59v27.9c39.18,5.9,113.39,33.94,117.64,161Z"/>
    <rect class="cls-1" x="1201.83" y="30.02" width="135.86" height="49.16"/>
    <path class="cls-1" d="m1342.66,304.53v585.89c0,20.82-16.87,37.69-37.69,37.69h-65.45c-20.82,0-37.69-16.87-37.69-37.69V304.53h140.83Z"/>
  </g>
</svg>