<?xml version="1.0" encoding="UTF-8"?>
<svg id="Calque_1" data-name="Calque 1" xmlns="http://www.w3.org/2000/svg" viewBox="0 0 2669.64 2932.93">
  <defs>
    <style>
      .cls-1, .cls-2, .cls-3 {
        stroke-width: 0px;
      }

      .cls-2, .cls-4, .cls-5, .cls-6 {
        fill: none;
      }

      .cls-7 {
        font-family: Impact, Impact;
        font-size: 224.82px;
      }

      .cls-3 {
        fill: #fff;
      }

      .cls-8, .cls-4, .cls-5, .cls-6 {
        stroke: #000;
      }

      .cls-4 {
        stroke-linecap: round;
        stroke-width: 3px;
      }

      .cls-4, .cls-6 {
        stroke-miterlimit: 10;
      }

      .cls-6 {
        stroke-width: .5px;
      }
    </style>
  </defs>
  <g id="Logo_simplifié" data-name="Logo simplifié">
    <path class="cls-1" d="m149.4,113.64v164.84c0,23.99-21.26,43.5-47.4,43.5H32.17v13.37H0v-82.97h32.17v13.37h60.99V126.4h-60.99v13.35H0V56.79h32.17v13.37h69.83c26.14,0,47.4,19.51,47.4,43.48Z"/>
    <rect class="cls-1" x="166.65" y="67.04" width="43.58" height="198.7"/>
    <path class="cls-1" d="m296.27,36.78h-72.12l.54.48s-.05.03-.05.05v33.85h-72.38v-33.85s-.04-.05-.07-.05l.54-.48h-72.12V9.32c0-5.15,6.17-9.32,13.78-9.32h33.55l44.17,19.45,4.05-3.62s.01-.01.03-.01h4.39s.07-.03.07-.07v-3.66c0-4.43,3.62-8.39,8.05-8.26,2.02.08,3.89.94,5.24,2.29,1.42,1.41,2.3,3.37,2.3,5.51v4.12s.04.07.07.07h4.35s.04,0,.05.01l4.05,3.62L248.94,0h33.56c7.6,0,13.77,4.17,13.77,9.32v27.46Z"/>
  </g>
  <path class="cls-1" d="m812.85,628.39v164.84c0,23.99-21.26,43.5-47.4,43.5h-69.83v13.37h-32.17v-82.97h32.17v13.37h60.99v-139.34h-60.99v13.35h-32.17v-82.96h32.17v13.37h69.83c26.14,0,47.4,19.51,47.4,43.48Z"/>
  <path class="cls-1" d="m926.63,716.87c-1.42-5.05-4.07-9.96-7.94-14.71-3.88-4.75-9.4-8.61-16.52-11.58-7.13-2.95-15.67-4.44-25.61-4.44-11.85,0-21.59,2.31-29.19,6.91-7.62,4.61-12.88,10.73-15.81,18.33s-4.39,18.17-4.39,31.71v37.31c0,12.36.81,21.62,2.42,27.81,1.6,6.18,4.3,11.45,8.06,15.8,3.77,4.35,9.05,7.6,15.86,9.76,6.81,2.15,15.1,3.24,24.9,3.24,8.78,0,16.55-1.26,23.32-3.79,6.77-2.52,12.31-6.43,16.62-11.73,4.32-5.31,7.13-11.02,8.45-17.12,1.32-6.11,1.97-15.71,1.97-28.8v-35.66c0-10.32-.7-18-2.14-23.04Zm-48.66,95.47c-14.4,0-26.07-15.15-26.07-33.84s26.07-67.69,26.07-67.69c0,0,26.08,49,26.08,67.69s-11.68,33.84-26.08,33.84Z"/>
  <path class="cls-1" d="m1316.33,764.15h-57.38v31.49c0,6.58.47,10.83,1.43,12.73.95,1.9,2.78,2.85,5.49,2.85,3.36,0,5.61-1.26,6.75-3.79,1.13-2.52,1.7-7.41,1.7-14.65v-19.2h42.02v10.75c0,9-.57,15.91-1.7,20.74-1.14,4.83-3.79,9.98-7.95,15.47s-9.46,9.6-15.85,12.34c-6.4,2.74-14.43,4.11-24.08,4.11s-17.63-1.35-24.8-4.06c-7.17-2.71-12.75-6.42-16.73-11.14-3.99-4.72-6.75-9.91-8.28-15.58-1.54-5.67-2.3-13.92-2.3-24.74v-42.46c0-12.73,1.72-22.77,5.16-30.12,3.44-7.35,9.07-12.98,16.9-16.9,7.83-3.91,16.82-5.87,26.99-5.87,12.43,0,22.69,2.36,30.78,7.08,8.08,4.72,13.75,10.97,17.01,18.76,3.25,7.79,4.88,18.75,4.88,32.86v19.31Zm-44.44-23.7v-10.64c0-7.53-.4-12.4-1.21-14.59-.81-2.19-2.45-3.29-4.94-3.29-3.07,0-4.98.93-5.71,2.8-.73,1.87-1.1,6.9-1.1,15.09v10.64h12.95Z"/>
  <path class="cls-1" d="m1018.88,688.78c-7.5-3.51-16.61-5.27-27.33-5.27-6.81,0-13.08.88-18.84,2.63-2.85.86-5.57,1.95-8.15,3.24-7.83,3.92-13.46,9.55-16.89,16.89-3.45,7.36-5.16,17.39-5.16,30.13v42.46c0,2.3.04,4.48.1,6.55.38,6.14,1.25,11.1,2.64,14.91,1.89,5.23,5.43,9.46,10.58,12.67,5.16,3.21,11.73,4.82,19.7,4.82,4.61,0,9.01-.88,13.22-2.64,4.21-1.75,8.2-4.36,12.02-7.81v10.99c0,6.3-.55,10.44-1.65,12.41-1.1,1.99-3.33,2.97-6.7,2.97-4.68,0-7.02-3.21-7.02-9.65h-43.01c.29,14.04,4.72,23.46,13.27,28.26,8.56,4.78,19.9,7.19,34.01,7.19,11.48,0,21.02-1.31,28.59-3.89,7.58-2.6,13.48-6.38,17.72-11.3,4.25-4.94,6.72-9.63,7.41-14.04.69-4.43,1.05-14.21,1.05-29.36v-112.13h-25.55Zm-18.88,83.72c0,8.27-.44,13.56-1.32,15.91-.88,2.34-2.78,3.5-5.71,3.5-2.56,0-4.25-.97-5.04-2.9-.57-1.38-.94-3.89-1.1-7.56-.07-1.5-.1-3.21-.1-5.11v-48.94c0-1.92.05-3.64.16-5.16h0c.13-5.32.47-8.69,1.05-10.15.73-1.86,2.63-2.8,5.71-2.8,2.48,0,4.13,1.1,4.94,3.29.33.88.57,2.16.76,3.88,0,.01.01.03.01.04.43,2.27.65,5.91.65,10.9v45.1Z"/>
  <path class="cls-1" d="m1428.79,743.75h-41.8v-16.79c0-5.85-.48-9.82-1.43-11.9-.95-2.08-2.71-3.13-5.27-3.13s-4.28.92-5.16,2.74c-.88,1.83-1.32,5.92-1.32,12.29v68.69c0,5.19.66,9.09,1.97,11.69,1.32,2.6,3.25,3.9,5.82,3.9,3,0,5.03-1.35,6.09-4.06,1.06-2.71,1.59-7.83,1.59-15.36v-17.34h39.5c-.07,11.63-.49,20.35-1.26,26.17-.77,5.82-3.22,11.78-7.35,17.88-4.13,6.11-9.53,10.72-16.18,13.82-6.66,3.11-14.89,4.66-24.69,4.66-12.51,0-22.42-2.14-29.73-6.42-7.32-4.28-12.49-10.28-15.53-17.99-3.04-7.72-4.55-18.67-4.55-32.86v-41.37c0-12.36,1.24-21.69,3.73-27.98,2.49-6.29,7.79-11.9,15.91-16.84s17.99-7.41,29.62-7.41,21.43,2.45,29.62,7.35c8.19,4.9,13.64,11.08,16.35,18.54,2.7,7.46,4.06,18.03,4.06,31.71Z"/>
  <rect class="cls-1" x="1060.24" y="688.78" width="45.64" height="145.6"/>
  <polygon class="cls-1" points="1189.86 711.19 1189.86 721.51 1146.28 730.55 1146.28 720.23 1189.86 711.19"/>
  <polygon class="cls-1" points="1189.86 733.43 1189.86 743.75 1146.28 752.79 1146.28 742.47 1189.86 733.43"/>
  <polygon class="cls-1" points="1189.86 755.67 1189.86 765.99 1146.28 775.03 1146.28 764.71 1189.86 755.67"/>
  <polygon class="cls-1" points="1189.86 777.91 1189.86 788.23 1146.28 797.27 1146.28 786.95 1189.86 777.91"/>
  <polygon class="cls-1" points="1189.86 800.15 1189.86 810.47 1146.28 819.51 1146.28 809.19 1189.86 800.15"/>
  <polygon class="cls-1" points="1146.28 831.43 1189.86 822.39 1189.86 834.37 1146.28 834.37 1146.28 831.43"/>
  <path class="cls-1" d="m1544.44,733.98v100.39h-44.33v-102.48c0-7.02-.29-11.95-.86-14.82-.21-2.02-.48-3.53-.84-4.49-.81-2.19-2.46-3.29-4.94-3.29-3.07,0-4.98.94-5.71,2.8-.48,1.21-.8,3.79-.97,7.69-.34,2.67-.51,6.23-.51,10.69v103.9h-44.33v-177.64h44.33v29.43h25.49c.35-.03.71-.03,1.06-.03,7.75,0,14.36,1.97,19.81,5.93,5.45,3.95,8.78,8.51,9.98,13.65,1.21,5.16,1.82,14.58,1.82,28.26Z"/>
  <path id="Reflet_goutte" data-name="Reflet goutte" class="cls-4" d="m896.24,784.73c-1.91,10.63-7.12,16.99-15.64,19.09"/>
  <path class="cls-1" d="m1275.89,675.09h-72.12l.54.48s-.05.03-.05.05v33.85h-72.38v-33.85s-.04-.05-.07-.05l.54-.48h-72.12v-27.46c0-5.15,6.17-9.32,13.78-9.32h33.55l44.17,19.45,4.05-3.62s.01-.01.03-.01h4.39s.07-.03.07-.07v-3.66c0-4.43,3.62-8.39,8.05-8.26,2.02.08,3.89.94,5.24,2.29,1.42,1.41,2.3,3.37,2.3,5.51v4.12s.04.07.07.07h4.35s.04,0,.05.01l4.05,3.62,44.18-19.45h33.56c7.6,0,13.77,4.17,13.77,9.32v27.46Z"/>
  <path class="cls-1" d="m1887.01,2055.04v164.84c0,23.99-21.26,43.5-47.4,43.5h-69.83v13.37h-32.17v-82.97h32.17v13.37h60.99v-139.34h-60.99v13.35h-32.17v-82.96h32.17v13.37h69.83c26.14,0,47.4,19.51,47.4,43.48Z"/>
  <path class="cls-1" d="m2000.79,2143.52c-1.42-5.04-4.07-9.95-7.94-14.71-3.88-4.74-9.39-8.61-16.51-11.57-7.14-2.96-15.68-4.45-25.62-4.45-11.85,0-21.59,2.32-29.19,6.92-7.62,4.61-12.88,10.72-15.81,18.33-2.92,7.6-4.39,18.17-4.39,31.7v37.32c0,12.35.81,21.62,2.42,27.81,1.61,6.18,4.3,11.44,8.06,15.8,3.78,4.35,9.05,7.6,15.86,9.75,6.81,2.16,15.1,3.24,24.9,3.24,8.78,0,16.56-1.25,23.32-3.78,6.77-2.53,12.31-6.43,16.62-11.74,4.33-5.3,7.13-11.01,8.45-17.11,1.32-6.12,1.98-15.72,1.98-28.81v-35.65c0-10.32-.71-18-2.15-23.05Zm-48.66,95.47c-14.4,0-26.07-15.15-26.07-33.84s26.07-67.68,26.07-67.68c0,0,26.08,48.99,26.08,67.68s-11.67,33.84-26.08,33.84Z"/>
  <path class="cls-1" d="m2399.66,2190.81h-57.38v31.49c0,6.58.47,10.83,1.43,12.73.95,1.9,2.78,2.85,5.49,2.85,3.36,0,5.61-1.26,6.75-3.79,1.13-2.52,1.7-7.41,1.7-14.65v-19.2h42.02v10.75c0,9-.57,15.91-1.7,20.74-1.14,4.83-3.79,9.98-7.95,15.47s-9.46,9.6-15.85,12.34c-6.4,2.74-14.43,4.11-24.08,4.11s-17.63-1.35-24.8-4.06c-7.17-2.71-12.75-6.42-16.73-11.14-3.99-4.72-6.75-9.91-8.28-15.58-1.54-5.67-2.3-13.92-2.3-24.74v-42.46c0-12.73,1.72-22.77,5.16-30.12,3.44-7.35,9.07-12.98,16.9-16.9,7.83-3.91,16.82-5.87,26.99-5.87,12.43,0,22.69,2.36,30.78,7.08,8.08,4.72,13.75,10.97,17.01,18.76,3.25,7.79,4.88,18.75,4.88,32.86v19.31Zm-44.44-23.7v-10.64c0-7.53-.4-12.4-1.21-14.59-.81-2.19-2.45-3.29-4.94-3.29-3.07,0-4.98.93-5.71,2.8-.73,1.87-1.1,6.9-1.1,15.09v10.64h12.95Z"/>
  <path class="cls-1" d="m2093.04,2115.43c-7.5-3.51-16.61-5.27-27.33-5.27-6.81,0-13.08.88-18.84,2.63-2.85.86-5.57,1.95-8.15,3.24-7.83,3.92-13.46,9.55-16.89,16.89-3.45,7.36-5.16,17.39-5.16,30.13v42.46c0,2.3.04,4.48.1,6.55.38,6.14,1.25,11.1,2.64,14.91,1.89,5.23,5.43,9.46,10.58,12.67,5.16,3.21,11.73,4.82,19.7,4.82,4.61,0,9.01-.88,13.22-2.64,4.21-1.75,8.2-4.36,12.02-7.81v10.99c0,6.3-.55,10.44-1.65,12.41-1.1,1.99-3.33,2.97-6.7,2.97-4.68,0-7.02-3.21-7.02-9.65h-43.01c.29,14.04,4.72,23.46,13.27,28.26,8.56,4.78,19.9,7.19,34.01,7.19,11.48,0,21.02-1.31,28.59-3.89,7.58-2.6,13.48-6.38,17.72-11.3,4.25-4.94,6.72-9.63,7.41-14.04.69-4.43,1.05-14.21,1.05-29.36v-112.13h-25.55Zm-18.88,83.72c0,8.27-.44,13.56-1.32,15.91-.88,2.34-2.78,3.5-5.71,3.5-2.56,0-4.25-.97-5.04-2.9-.57-1.38-.94-3.89-1.1-7.56-.07-1.5-.1-3.21-.1-5.11v-48.94c0-1.92.05-3.64.16-5.16h0c.13-5.32.47-8.69,1.05-10.15.73-1.86,2.63-2.8,5.71-2.8,2.48,0,4.13,1.1,4.94,3.29.33.88.57,2.16.76,3.88,0,.01.01.03.01.04.43,2.27.65,5.91.65,10.9v45.1Z"/>
  <path class="cls-1" d="m2512.13,2170.4h-41.8v-16.79c0-5.85-.48-9.82-1.43-11.9-.95-2.08-2.71-3.13-5.27-3.13s-4.28.92-5.16,2.74c-.88,1.83-1.32,5.92-1.32,12.29v68.69c0,5.19.66,9.09,1.97,11.69,1.32,2.6,3.25,3.9,5.82,3.9,3,0,5.03-1.35,6.09-4.06,1.06-2.71,1.59-7.83,1.59-15.36v-17.34h39.5c-.07,11.63-.49,20.35-1.26,26.17-.77,5.82-3.22,11.78-7.35,17.88-4.13,6.11-9.53,10.72-16.18,13.82-6.66,3.11-14.89,4.66-24.69,4.66-12.51,0-22.42-2.14-29.73-6.42-7.32-4.28-12.49-10.28-15.53-17.99-3.04-7.72-4.55-18.67-4.55-32.86v-41.37c0-12.36,1.24-21.69,3.73-27.98,2.49-6.29,7.79-11.9,15.91-16.84s17.99-7.41,29.62-7.41,21.43,2.45,29.62,7.35c8.19,4.9,13.64,11.08,16.35,18.54,2.7,7.46,4.06,18.03,4.06,31.71Z"/>
  <path class="cls-1" d="m2627.78,2160.64v100.39h-44.33v-102.48c0-7.02-.29-11.95-.86-14.82-.21-2.02-.48-3.53-.84-4.49-.81-2.19-2.46-3.29-4.94-3.29-3.07,0-4.98.94-5.71,2.8-.48,1.21-.8,3.79-.97,7.69-.34,2.67-.51,6.23-.51,10.69v103.9h-44.33v-177.64h44.33v29.43h25.49c.35-.03.71-.03,1.06-.03,7.75,0,14.36,1.97,19.81,5.93,5.45,3.95,8.78,8.51,9.98,13.65,1.21,5.16,1.82,14.58,1.82,28.26Z"/>
  <path class="cls-1" d="m812.85,110.21v164.84c0,23.99-21.26,43.5-47.4,43.5h-69.83v13.37h-32.17v-82.97h32.17v13.37h60.99V122.97h-60.99v13.35h-32.17V53.36h32.17v13.37h69.83c26.14,0,47.4,19.51,47.4,43.48Z"/>
  <path class="cls-1" d="m928.77,221.74v35.65c0,13.09-.65,22.69-1.97,28.81-1.32,6.1-4.13,11.81-8.45,17.11-4.31,5.3-9.85,9.21-16.62,11.73-6.77,2.53-14.54,3.79-23.32,3.79-9.8,0-18.09-1.08-24.9-3.24-6.81-2.16-12.08-5.41-15.86-9.76-3.76-4.35-6.45-9.62-8.06-15.8-1.61-6.19-2.42-15.46-2.42-27.81v-37.31c0-13.53,1.46-24.1,4.39-31.71s8.19-13.72,15.81-18.33c7.6-4.6,17.34-6.91,29.19-6.91,9.94,0,18.49,1.49,25.62,4.44,7.12,2.97,12.63,6.83,16.51,11.58,3.87,4.76,6.52,9.67,7.94,14.71,1.44,5.04,2.14,12.72,2.14,23.05Z"/>
  <path class="cls-1" d="m1316.33,245.98h-57.38v31.49c0,6.58.47,10.83,1.43,12.73.95,1.9,2.78,2.85,5.49,2.85,3.36,0,5.61-1.26,6.75-3.79,1.13-2.52,1.7-7.41,1.7-14.65v-19.2h42.02v10.75c0,9-.57,15.91-1.7,20.74-1.14,4.83-3.79,9.98-7.95,15.47s-9.46,9.6-15.85,12.34c-6.4,2.74-14.43,4.11-24.08,4.11s-17.63-1.35-24.8-4.06c-7.17-2.71-12.75-6.42-16.73-11.14-3.99-4.72-6.75-9.91-8.28-15.58-1.54-5.67-2.3-13.92-2.3-24.74v-42.46c0-12.73,1.72-22.77,5.16-30.12,3.44-7.35,9.07-12.98,16.9-16.9,7.83-3.91,16.82-5.87,26.99-5.87,12.43,0,22.69,2.36,30.78,7.08,8.08,4.72,13.75,10.97,17.01,18.76,3.25,7.79,4.88,18.75,4.88,32.86v19.31Zm-44.44-23.7v-10.64c0-7.53-.4-12.4-1.21-14.59-.81-2.19-2.45-3.29-4.94-3.29-3.07,0-4.98.93-5.71,2.8-.73,1.87-1.1,6.9-1.1,15.09v10.64h12.95Z"/>
  <path class="cls-1" d="m1018.88,170.6c-7.5-3.51-16.61-5.27-27.33-5.27-6.81,0-13.08.88-18.84,2.63-2.85.86-5.57,1.95-8.15,3.24-7.83,3.92-13.46,9.55-16.89,16.89-3.45,7.36-5.16,17.39-5.16,30.13v42.46c0,2.3.04,4.48.1,6.55.38,6.14,1.25,11.1,2.64,14.91,1.89,5.23,5.43,9.46,10.58,12.67,5.16,3.21,11.73,4.82,19.7,4.82,4.61,0,9.01-.88,13.22-2.64,4.21-1.75,8.2-4.36,12.02-7.81v10.99c0,6.3-.55,10.44-1.65,12.41-1.1,1.99-3.33,2.97-6.7,2.97-4.68,0-7.02-3.21-7.02-9.65h-43.01c.29,14.04,4.72,23.46,13.27,28.26,8.56,4.78,19.9,7.19,34.01,7.19,11.48,0,21.02-1.31,28.59-3.89,7.58-2.6,13.48-6.38,17.72-11.3,4.25-4.94,6.72-9.63,7.41-14.04.69-4.43,1.05-14.21,1.05-29.36v-112.13h-25.55Zm-18.88,83.72c0,8.27-.44,13.56-1.32,15.91-.88,2.34-2.78,3.5-5.71,3.5-2.56,0-4.25-.97-5.04-2.9-.57-1.38-.94-3.89-1.1-7.56-.07-1.5-.1-3.21-.1-5.11v-48.94c0-1.92.05-3.64.16-5.16h0c.13-5.32.47-8.69,1.05-10.15.73-1.86,2.63-2.8,5.71-2.8,2.48,0,4.13,1.1,4.94,3.29.33.88.57,2.16.76,3.88,0,.01.01.03.01.04.43,2.27.65,5.91.65,10.9v45.1Z"/>
  <path class="cls-1" d="m1428.79,225.57h-41.8v-16.79c0-5.85-.48-9.82-1.43-11.9-.95-2.08-2.71-3.13-5.27-3.13s-4.28.92-5.16,2.74c-.88,1.83-1.32,5.92-1.32,12.29v68.69c0,5.19.66,9.09,1.97,11.69,1.32,2.6,3.25,3.9,5.82,3.9,3,0,5.03-1.35,6.09-4.06,1.06-2.71,1.59-7.83,1.59-15.36v-17.34h39.5c-.07,11.63-.49,20.35-1.26,26.17-.77,5.82-3.22,11.78-7.35,17.88-4.13,6.11-9.53,10.72-16.18,13.82-6.66,3.11-14.89,4.66-24.69,4.66-12.51,0-22.42-2.14-29.73-6.42-7.32-4.28-12.49-10.28-15.53-17.99-3.04-7.72-4.55-18.67-4.55-32.86v-41.37c0-12.36,1.24-21.69,3.73-27.98,2.49-6.29,7.79-11.9,15.91-16.84s17.99-7.41,29.62-7.41,21.43,2.45,29.62,7.35c8.19,4.9,13.64,11.08,16.35,18.54,2.7,7.46,4.06,18.03,4.06,31.71Z"/>
  <rect class="cls-1" x="1060.24" y="170.6" width="45.64" height="145.6"/>
  <rect class="cls-1" x="1146.27" y="187.17" width="43.58" height="129.03"/>
  <path class="cls-1" d="m1544.44,215.8v100.39h-44.33v-102.48c0-7.02-.29-11.95-.86-14.82-.21-2.02-.48-3.53-.84-4.49-.81-2.19-2.46-3.29-4.94-3.29-3.07,0-4.98.94-5.71,2.8-.48,1.21-.8,3.79-.97,7.69-.34,2.67-.51,6.23-.51,10.69v103.9h-44.33v-177.64h44.33v29.43h25.49c.35-.03.71-.03,1.06-.03,7.75,0,14.36,1.97,19.81,5.93,5.45,3.95,8.78,8.51,9.98,13.65,1.21,5.16,1.82,14.58,1.82,28.26Z"/>
  <path id="Goutte" class="cls-3" d="m904.04,260.32c0,18.69-11.67,33.84-26.07,33.84s-26.07-15.15-26.07-33.84,26.07-67.68,26.07-67.68c0,0,26.07,48.99,26.07,67.68Z"/>
  <path id="Reflet_goutte-2" data-name="Reflet goutte" class="cls-4" d="m896.24,266.55c-1.91,10.63-7.12,16.99-15.64,19.09"/>
  <rect class="cls-3" x="1142.21" y="296.94" width="51.71" height="11.68" transform="translate(-37.16 243.75) rotate(-11.73)"/>
  <rect class="cls-3" x="1142.21" y="274.7" width="51.71" height="11.68" transform="translate(-32.64 243.28) rotate(-11.73)"/>
  <rect class="cls-3" x="1142.21" y="185.74" width="51.71" height="11.68" transform="translate(-14.56 241.43) rotate(-11.73)"/>
  <rect class="cls-3" x="1142.21" y="252.46" width="51.71" height="11.68" transform="translate(-28.12 242.82) rotate(-11.73)"/>
  <rect class="cls-3" x="1142.21" y="230.22" width="51.71" height="11.68" transform="translate(-23.6 242.36) rotate(-11.73)"/>
  <rect class="cls-3" x="1142.21" y="207.98" width="51.71" height="11.68" transform="translate(-19.08 241.89) rotate(-11.73)"/>
  <path class="cls-1" d="m1275.89,156.91h-72.12l.54.48s-.05.03-.05.05v33.85h-72.38v-33.85s-.04-.05-.07-.05l.54-.48h-72.12v-27.46c0-5.15,6.17-9.32,13.78-9.32h33.55l44.17,19.45,4.05-3.62s.01-.01.03-.01h4.39s.07-.03.07-.07v-3.66c0-4.43,3.62-8.39,8.05-8.26,2.02.08,3.89.94,5.24,2.29,1.42,1.41,2.3,3.37,2.3,5.51v4.12s.04.07.07.07h4.35s.04,0,.05.01l4.05,3.62,44.18-19.45h33.56c7.6,0,13.77,4.17,13.77,9.32v27.46Z"/>
  <polygon class="cls-1" points="1073.41 1727.69 1073.41 1748.47 1046.31 1748.47 1046.31 1713.4 1073.41 1727.69"/>
  <polygon class="cls-1" points="1137.21 1657.99 1137.21 1693.04 1110.11 1678.76 1110.11 1657.99 1137.21 1657.99"/>
  <polygon class="cls-1" points="1135.92 1703.7 1100.93 1703.7 1100.93 1730.86 1082.17 1720.97 1073.41 1716.35 1049.41 1703.7 1082.17 1703.7 1082.17 1675.37 1100.93 1685.26 1110.11 1690.09 1135.92 1703.7"/>
  <polygon class="cls-1" points="2659.37 1286.55 2624.38 1286.55 2624.38 1313.71 2605.62 1303.82 2596.86 1299.2 2572.86 1286.55 2605.62 1286.55 2605.62 1258.22 2624.38 1268.11 2633.56 1272.94 2659.37 1286.55"/>
  <line class="cls-1" x1="1113.41" y1="1737.44" x2="1110.11" y2="1735.7"/>
  <rect class="cls-1" x="1046.31" y="1657.99" width="27.1" height="45.71"/>
  <rect class="cls-1" x="1110.11" y="1703.7" width="27.1" height="44.77"/>
  <path class="cls-1" d="m1927.04,1152.12v164.84c0,23.99-21.26,43.5-47.4,43.5h-69.83v13.37h-32.17v-82.97h32.17v13.37h60.99v-139.34h-60.99v13.35h-32.17v-82.96h32.17v13.37h69.83c26.14,0,47.4,19.51,47.4,43.48Z"/>
  <path class="cls-1" d="m2040.82,1240.61c-1.42-5.05-4.07-9.96-7.94-14.71-3.88-4.75-9.4-8.61-16.52-11.58-7.13-2.95-15.67-4.44-25.61-4.44-11.85,0-21.59,2.31-29.19,6.91-7.62,4.61-12.88,10.73-15.81,18.33s-4.39,18.17-4.39,31.71v37.31c0,12.36.81,21.62,2.42,27.81,1.6,6.18,4.3,11.45,8.06,15.8,3.77,4.35,9.05,7.6,15.86,9.76,6.81,2.15,15.1,3.24,24.9,3.24,8.78,0,16.55-1.26,23.32-3.79,6.77-2.52,12.31-6.43,16.62-11.73,4.32-5.31,7.13-11.02,8.45-17.12,1.32-6.11,1.97-15.71,1.97-28.8v-35.66c0-10.32-.7-18-2.14-23.04Zm-48.66,95.47c-14.4,0-26.07-15.15-26.07-33.84s26.07-67.69,26.07-67.69c0,0,26.08,49,26.08,67.69s-11.68,33.84-26.08,33.84Z"/>
  <path class="cls-1" d="m2430.52,1287.89h-57.38v31.49c0,6.58.47,10.83,1.43,12.73.95,1.9,2.78,2.85,5.49,2.85,3.36,0,5.61-1.26,6.75-3.79,1.13-2.52,1.7-7.41,1.7-14.65v-19.2h42.02v10.75c0,9-.57,15.91-1.7,20.74-1.14,4.83-3.79,9.98-7.95,15.47-4.17,5.49-9.46,9.6-15.85,12.34-6.4,2.74-14.43,4.11-24.08,4.11s-17.63-1.35-24.8-4.06c-7.17-2.71-12.75-6.42-16.73-11.14-3.99-4.72-6.75-9.91-8.28-15.58-1.54-5.67-2.3-13.92-2.3-24.74v-42.46c0-12.73,1.72-22.77,5.16-30.12,3.44-7.35,9.07-12.98,16.9-16.9,7.83-3.91,16.82-5.87,26.99-5.87,12.43,0,22.69,2.36,30.78,7.08,8.08,4.72,13.75,10.97,17.01,18.76,3.25,7.79,4.88,18.75,4.88,32.86v19.31Zm-44.44-23.7v-10.64c0-7.53-.4-12.4-1.21-14.59-.81-2.19-2.45-3.29-4.94-3.29-3.07,0-4.98.93-5.71,2.8-.73,1.87-1.1,6.9-1.1,15.09v10.64h12.95Z"/>
  <path class="cls-1" d="m2133.07,1212.52c-7.5-3.51-16.61-5.27-27.33-5.27-6.81,0-13.08.88-18.84,2.63-2.85.86-5.57,1.95-8.15,3.24-7.83,3.92-13.46,9.55-16.89,16.89-3.45,7.36-5.16,17.39-5.16,30.13v42.46c0,2.3.04,4.48.1,6.55.38,6.14,1.25,11.1,2.64,14.91,1.89,5.23,5.43,9.46,10.58,12.67,5.16,3.21,11.73,4.82,19.7,4.82,4.61,0,9.01-.88,13.22-2.64,4.21-1.75,8.2-4.36,12.02-7.81v10.99c0,6.3-.55,10.44-1.65,12.41-1.1,1.99-3.33,2.97-6.7,2.97-4.68,0-7.02-3.21-7.02-9.65h-43.01c.29,14.04,4.72,23.46,13.27,28.26,8.56,4.78,19.9,7.19,34.01,7.19,11.48,0,21.02-1.31,28.59-3.89,7.58-2.6,13.48-6.38,17.72-11.3,4.25-4.94,6.72-9.63,7.41-14.04.69-4.43,1.05-14.21,1.05-29.36v-112.13h-25.55Zm-18.88,83.72c0,8.27-.44,13.56-1.32,15.91-.88,2.34-2.78,3.5-5.71,3.5-2.56,0-4.25-.97-5.04-2.9-.57-1.38-.94-3.89-1.1-7.56-.07-1.5-.1-3.21-.1-5.11v-48.94c0-1.92.05-3.64.16-5.16h0c.13-5.32.47-8.69,1.05-10.15.73-1.86,2.63-2.8,5.71-2.8,2.48,0,4.13,1.1,4.94,3.29.33.88.57,2.16.76,3.88,0,.01.01.03.01.04.43,2.27.65,5.91.65,10.9v45.1Z"/>
  <path class="cls-1" d="m2542.99,1267.48h-41.8v-16.79c0-5.85-.48-9.82-1.43-11.9-.95-2.08-2.71-3.13-5.27-3.13s-4.28.92-5.16,2.74c-.88,1.83-1.32,5.92-1.32,12.29v68.69c0,5.19.66,9.09,1.97,11.69,1.32,2.6,3.25,3.9,5.82,3.9,3,0,5.03-1.35,6.09-4.06,1.06-2.71,1.59-7.83,1.59-15.36v-17.34h39.5c-.07,11.63-.49,20.35-1.26,26.17s-3.22,11.78-7.35,17.88c-4.13,6.11-9.53,10.72-16.18,13.82-6.66,3.11-14.89,4.66-24.69,4.66-12.51,0-22.42-2.14-29.73-6.42-7.32-4.28-12.49-10.28-15.53-17.99-3.04-7.72-4.55-18.67-4.55-32.86v-41.37c0-12.36,1.24-21.69,3.73-27.98,2.49-6.29,7.79-11.9,15.91-16.84,8.12-4.94,17.99-7.41,29.62-7.41s21.43,2.45,29.62,7.35c8.19,4.9,13.64,11.08,16.35,18.54,2.7,7.46,4.06,18.03,4.06,31.71Z"/>
  <rect class="cls-1" x="2174.43" y="1212.51" width="45.64" height="145.6"/>
  <polygon class="cls-1" points="2304.05 1234.93 2304.05 1245.25 2260.47 1254.29 2260.47 1243.97 2304.05 1234.93"/>
  <polygon class="cls-1" points="2304.05 1257.17 2304.05 1267.49 2260.47 1276.53 2260.47 1266.21 2304.05 1257.17"/>
  <polygon class="cls-1" points="2304.05 1279.41 2304.05 1289.73 2260.47 1298.77 2260.47 1288.45 2304.05 1279.41"/>
  <polygon class="cls-1" points="2304.05 1301.65 2304.05 1311.97 2260.47 1321.01 2260.47 1310.69 2304.05 1301.65"/>
  <polygon class="cls-1" points="2304.05 1323.89 2304.05 1334.21 2260.47 1343.25 2260.47 1332.93 2304.05 1323.89"/>
  <polygon class="cls-1" points="2260.47 1355.17 2304.05 1346.13 2304.05 1358.11 2260.47 1358.11 2260.47 1355.17"/>
  <path id="Reflet_goutte-3" data-name="Reflet goutte" class="cls-4" d="m2010.43,1308.46c-1.91,10.63-7.12,16.99-15.64,19.09"/>
  <path class="cls-1" d="m2390.09,1198.82h-72.12l.54.48s-.05.03-.05.05v33.85h-72.38v-33.85s-.04-.05-.07-.05l.54-.48h-72.12v-27.46c0-5.15,6.17-9.32,13.78-9.32h33.55l44.17,19.45,4.05-3.62s.01-.01.03-.01h4.39s.07-.03.07-.07v-3.66c0-4.43,3.62-8.39,8.05-8.26,2.02.08,3.89.94,5.24,2.29,1.42,1.41,2.3,3.37,2.3,5.51v4.12s.04.07.07.07h4.35s.04,0,.05.01l4.05,3.62,44.18-19.45h33.56c7.6,0,13.77,4.17,13.77,9.32v27.46Z"/>
  <polygon class="cls-1" points="2589.82 1325.87 2589.82 1360.46 2555.91 1360.46 2555.91 1302.09 2589.82 1325.87"/>
  <polygon class="cls-1" points="2669.64 1209.88 2669.64 1268.21 2635.73 1244.44 2635.73 1209.88 2669.64 1209.88"/>
  <polygon class="cls-1" points="2669.64 1209.88 2669.64 1268.21 2635.73 1244.44 2635.73 1209.88 2669.64 1209.88"/>
  <polyline class="cls-2" points="2602.74 1285.95 2624.25 1285.96 2635.74 1285.96"/>
  <line class="cls-2" x1="2589.82" y1="1270.46" x2="2555.91" y2="1270.45"/>
  <line class="cls-2" x1="2600.78" y1="1285.92" x2="2589.82" y2="1285.91"/>
  <line class="cls-2" x1="2639.86" y1="1342.1" x2="2635.73" y2="1339.2"/>
  <polygon class="cls-1" points="2589.82 1209.88 2589.82 1270.46 2555.91 1270.45 2555.91 1209.88 2589.82 1209.88"/>
  <polygon class="cls-1" points="2669.64 1301.42 2669.64 1360.45 2635.74 1360.45 2635.74 1301.41 2669.64 1301.42"/>
  <polygon class="cls-1" points="2589.82 1319.31 2589.82 1360.45 2555.92 1360.45 2555.92 1301.44 2577.25 1312.68 2589.82 1319.31"/>
  <polygon class="cls-1" points="2669.64 1209.53 2669.64 1268.56 2668.22 1268.56 2651.34 1259.66 2635.74 1251.45 2635.74 1209.52 2669.64 1209.53"/>
  <path class="cls-1" d="m812.85,1152.12v164.84c0,23.99-21.26,43.5-47.4,43.5h-69.83v13.37h-32.17v-82.97h32.17v13.37h60.99v-139.34h-60.99v13.35h-32.17v-82.96h32.17v13.37h69.83c26.14,0,47.4,19.51,47.4,43.48Z"/>
  <path class="cls-1" d="m926.63,1240.61c-1.42-5.05-4.07-9.96-7.94-14.71-3.88-4.75-9.4-8.61-16.52-11.58-7.13-2.95-15.67-4.44-25.61-4.44-11.85,0-21.59,2.31-29.19,6.91-7.62,4.61-12.88,10.73-15.81,18.33s-4.39,18.17-4.39,31.71v37.31c0,12.36.81,21.62,2.42,27.81,1.6,6.18,4.3,11.45,8.06,15.8,3.77,4.35,9.05,7.6,15.86,9.76,6.81,2.15,15.1,3.24,24.9,3.24,8.78,0,16.55-1.26,23.32-3.79,6.77-2.52,12.31-6.43,16.62-11.73,4.32-5.31,7.13-11.02,8.45-17.12,1.32-6.11,1.97-15.71,1.97-28.8v-35.66c0-10.32-.7-18-2.14-23.04Zm-48.66,95.47c-14.4,0-26.07-15.15-26.07-33.84s26.07-67.69,26.07-67.69c0,0,26.08,49,26.08,67.69s-11.68,33.84-26.08,33.84Z"/>
  <path class="cls-1" d="m1316.33,1287.89h-57.38v31.49c0,6.58.47,10.83,1.43,12.73.95,1.9,2.78,2.85,5.49,2.85,3.36,0,5.61-1.26,6.75-3.79,1.13-2.52,1.7-7.41,1.7-14.65v-19.2h42.02v10.75c0,9-.57,15.91-1.7,20.74-1.14,4.83-3.79,9.98-7.95,15.47-4.17,5.49-9.46,9.6-15.85,12.34-6.4,2.74-14.43,4.11-24.08,4.11s-17.63-1.35-24.8-4.06c-7.17-2.71-12.75-6.42-16.73-11.14-3.99-4.72-6.75-9.91-8.28-15.58-1.54-5.67-2.3-13.92-2.3-24.74v-42.46c0-12.73,1.72-22.77,5.16-30.12,3.44-7.35,9.07-12.98,16.9-16.9,7.83-3.91,16.82-5.87,26.99-5.87,12.43,0,22.69,2.36,30.78,7.08,8.08,4.72,13.75,10.97,17.01,18.76,3.25,7.79,4.88,18.75,4.88,32.86v19.31Zm-44.44-23.7v-10.64c0-7.53-.4-12.4-1.21-14.59-.81-2.19-2.45-3.29-4.94-3.29-3.07,0-4.98.93-5.71,2.8-.73,1.87-1.1,6.9-1.1,15.09v10.64h12.95Z"/>
  <path class="cls-1" d="m1018.88,1212.52c-7.5-3.51-16.61-5.27-27.33-5.27-6.81,0-13.08.88-18.84,2.63-2.85.86-5.57,1.95-8.15,3.24-7.83,3.92-13.46,9.55-16.89,16.89-3.45,7.36-5.16,17.39-5.16,30.13v42.46c0,2.3.04,4.48.1,6.55.38,6.14,1.25,11.1,2.64,14.91,1.89,5.23,5.43,9.46,10.58,12.67,5.16,3.21,11.73,4.82,19.7,4.82,4.61,0,9.01-.88,13.22-2.64,4.21-1.75,8.2-4.36,12.02-7.81v10.99c0,6.3-.55,10.44-1.65,12.41-1.1,1.99-3.33,2.97-6.7,2.97-4.68,0-7.02-3.21-7.02-9.65h-43.01c.29,14.04,4.72,23.46,13.27,28.26,8.56,4.78,19.9,7.19,34.01,7.19,11.48,0,21.02-1.31,28.59-3.89,7.58-2.6,13.48-6.38,17.72-11.3,4.25-4.94,6.72-9.63,7.41-14.04.69-4.43,1.05-14.21,1.05-29.36v-112.13h-25.55Zm-18.88,83.72c0,8.27-.44,13.56-1.32,15.91-.88,2.34-2.78,3.5-5.71,3.5-2.56,0-4.25-.97-5.04-2.9-.57-1.38-.94-3.89-1.1-7.56-.07-1.5-.1-3.21-.1-5.11v-48.94c0-1.92.05-3.64.16-5.16h0c.13-5.32.47-8.69,1.05-10.15.73-1.86,2.63-2.8,5.71-2.8,2.48,0,4.13,1.1,4.94,3.29.33.88.57,2.16.76,3.88,0,.01.01.03.01.04.43,2.27.65,5.91.65,10.9v45.1Z"/>
  <path class="cls-1" d="m1428.79,1267.48h-41.8v-16.79c0-5.85-.48-9.82-1.43-11.9-.95-2.08-2.71-3.13-5.27-3.13s-4.28.92-5.16,2.74c-.88,1.83-1.32,5.92-1.32,12.29v68.69c0,5.19.66,9.09,1.97,11.69,1.32,2.6,3.25,3.9,5.82,3.9,3,0,5.03-1.35,6.09-4.06,1.06-2.71,1.59-7.83,1.59-15.36v-17.34h39.5c-.07,11.63-.49,20.35-1.26,26.17s-3.22,11.78-7.35,17.88c-4.13,6.11-9.53,10.72-16.18,13.82-6.66,3.11-14.89,4.66-24.69,4.66-12.51,0-22.42-2.14-29.73-6.42-7.32-4.28-12.49-10.28-15.53-17.99-3.04-7.72-4.55-18.67-4.55-32.86v-41.37c0-12.36,1.24-21.69,3.73-27.98,2.49-6.29,7.79-11.9,15.91-16.84,8.12-4.94,17.99-7.41,29.62-7.41s21.43,2.45,29.62,7.35c8.19,4.9,13.64,11.08,16.35,18.54,2.7,7.46,4.06,18.03,4.06,31.71Z"/>
  <rect class="cls-1" x="1060.24" y="1212.51" width="45.64" height="145.6"/>
  <polygon class="cls-1" points="1189.86 1234.93 1189.86 1245.25 1146.28 1254.29 1146.28 1243.97 1189.86 1234.93"/>
  <polygon class="cls-1" points="1189.86 1257.17 1189.86 1267.49 1146.28 1276.53 1146.28 1266.21 1189.86 1257.17"/>
  <polygon class="cls-1" points="1189.86 1279.41 1189.86 1289.73 1146.28 1298.77 1146.28 1288.45 1189.86 1279.41"/>
  <polygon class="cls-1" points="1189.86 1301.65 1189.86 1311.97 1146.28 1321.01 1146.28 1310.69 1189.86 1301.65"/>
  <polygon class="cls-1" points="1189.86 1323.89 1189.86 1334.21 1146.28 1343.25 1146.28 1332.93 1189.86 1323.89"/>
  <polygon class="cls-1" points="1146.28 1355.17 1189.86 1346.13 1189.86 1358.11 1146.28 1358.11 1146.28 1355.17"/>
  <path id="Reflet_goutte-4" data-name="Reflet goutte" class="cls-4" d="m896.24,1308.46c-1.91,10.63-7.12,16.99-15.64,19.09"/>
  <path class="cls-1" d="m1275.89,1198.82h-72.12l.54.48s-.05.03-.05.05v33.85h-72.38v-33.85s-.04-.05-.07-.05l.54-.48h-72.12v-27.46c0-5.15,6.17-9.32,13.78-9.32h33.55l44.17,19.45,4.05-3.62s.01-.01.03-.01h4.39s.07-.03.07-.07v-3.66c0-4.43,3.62-8.39,8.05-8.26,2.02.08,3.89.94,5.24,2.29,1.42,1.41,2.3,3.37,2.3,5.51v4.12s.04.07.07.07h4.35s.04,0,.05.01l4.05,3.62,44.18-19.45h33.56c7.6,0,13.77,4.17,13.77,9.32v27.46Z"/>
  <polygon class="cls-1" points="1475.62 1325.87 1475.62 1360.46 1441.72 1360.46 1441.72 1302.09 1475.62 1325.87"/>
  <polygon class="cls-1" points="1555.45 1209.88 1555.45 1268.21 1521.54 1244.44 1521.54 1209.88 1555.45 1209.88"/>
  <polygon class="cls-1" points="1555.45 1209.88 1555.45 1268.21 1521.54 1244.44 1521.54 1209.88 1555.45 1209.88"/>
  <polygon class="cls-1" points="1553.84 1285.95 1510.06 1285.95 1510.06 1331.15 1486.59 1314.69 1475.63 1307 1445.6 1285.95 1486.59 1285.95 1486.59 1238.8 1510.06 1255.26 1521.55 1263.3 1531.79 1270.48 1553.84 1285.95"/>
  <polyline class="cls-2" points="1488.55 1285.95 1510.06 1285.96 1521.55 1285.96"/>
  <line class="cls-2" x1="1475.63" y1="1270.46" x2="1441.72" y2="1270.45"/>
  <line class="cls-2" x1="1486.59" y1="1285.92" x2="1475.63" y2="1285.91"/>
  <line class="cls-2" x1="1525.67" y1="1342.1" x2="1521.54" y2="1339.2"/>
  <polygon class="cls-1" points="1475.63 1209.88 1475.63 1270.46 1441.72 1270.45 1441.72 1209.88 1475.63 1209.88"/>
  <polygon class="cls-1" points="1555.45 1301.42 1555.45 1360.45 1521.55 1360.45 1521.55 1301.41 1555.45 1301.42"/>
  <g>
    <line class="cls-6" x1="1046.3" y1="1631.3" x2="1046.3" y2="1784.75"/>
    <line class="cls-6" x1="1073.41" y1="1631.3" x2="1073.41" y2="1784.75"/>
    <line class="cls-6" x1="1082.17" y1="1631.3" x2="1082.17" y2="1784.75"/>
    <line class="cls-6" x1="1100.93" y1="1636.72" x2="1100.93" y2="1790.17"/>
    <line class="cls-6" x1="1110.1" y1="1631.3" x2="1110.1" y2="1784.75"/>
    <line class="cls-6" x1="1137.21" y1="1631.3" x2="1137.21" y2="1784.75"/>
    <line class="cls-6" x1="1078.41" y1="1673.39" x2="1155.14" y2="1713.84"/>
    <line class="cls-6" x1="1083.09" y1="1664.52" x2="1159.81" y2="1704.97"/>
    <line class="cls-6" x1="1032" y1="1705.86" x2="1108.73" y2="1746.31"/>
    <line class="cls-6" x1="1036.68" y1="1696.99" x2="1113.41" y2="1737.44"/>
    <line class="cls-6" x1="1031.8" y1="1703.7" x2="1156.07" y2="1703.7"/>
    <line class="cls-6" x1="1029.32" y1="1657.99" x2="1153.59" y2="1657.99"/>
    <line class="cls-6" x1="1033.02" y1="1748.47" x2="1157.29" y2="1748.47"/>
  </g>
  <text class="cls-7" transform="translate(353.88 2858.61)"><tspan x="0" y="0">Dogitech</tspan></text>
  <path class="cls-5" d="m1487.06,2520.03v22.94h11.97v23.05h-11.97v77.94c0,9.59.49,14.93,1.48,16.03.99,1.1,5.1,1.65,12.35,1.65v23.49h-17.89c-10.1,0-17.31-.42-21.63-1.26-4.32-.84-8.12-2.78-11.42-5.82-3.29-3.04-5.34-6.51-6.15-10.43-.81-3.91-1.21-13.12-1.21-27.61v-73.99h-9.55v-23.05h9.55v-22.94h44.46Z"/>
  <path class="cls-1" d="m1780.62,2656.54l-52.62,91.02,5.08-59.4h-12.73c-10.1,0-17.23-.41-21.4-1.25-4.17-.82-7.63-2.74-10.38-5.74-2.75-2.99-4.18-6.42-4.29-10.28-.11-3.87,1.12-12.95,3.7-27.24l13.15-73h-9.55l4.1-22.75h9.55l4.08-22.63h44.46l-4.08,22.63h11.97l-4.1,22.75h-11.97l-15.85,86.16,50.87-.28Z"/>
  <path class="cls-1" d="m2286.77,2231.77l-42,90.76,5.08-59.4h-12.73c-10.1,0-17.23-.41-21.4-1.25-4.17-.82-7.63-2.74-10.38-5.74-2.75-2.99-4.18-6.42-4.29-10.28-.11-3.87,1.12-12.95,3.7-27.24l13.15-73h-9.55l4.1-22.75h9.55l4.08-22.63h44.46l-4.08,22.63h11.97l-4.1,22.75h-11.97l-13.85,75.31,31.62.34c5.37.06,8.89,5.63,6.63,10.5Z"/>
  <polygon class="cls-5" points="1390.53 2520.03 1380.98 2598.71 1407.74 2598.71 1374.38 2685.14 1374.38 2624.07 1333.24 2624.07 1345.87 2520.03 1390.53 2520.03"/>
  <rect class="cls-5" x="1329.24" y="2542.98" width="65.98" height="23.05"/>
  <path class="cls-8" d="m1263.2,2685.14v-61.07h-22.02c-10.16,0-18.04-8.89-16.81-18.98l4.74-39.06h-11.05v-23.05h13.84l2.79-22.95h44.66l-2.79,22.95h7.48v23.05h-10.27l-3.97,32.68h26.76l-33.36,86.43Z"/>
  <g>
    <g>
      <polygon class="cls-1" points="2185.77 2115.43 2185.77 2115.44 2140.12 2123.14 2140.12 2115.43 2185.77 2115.43"/>
      <polygon class="cls-1" points="2185.77 2128.22 2185.77 2138.59 2140.12 2146.29 2140.12 2135.91 2185.77 2128.22"/>
      <polygon class="cls-1" points="2185.77 2151.37 2185.77 2161.74 2140.12 2169.44 2140.12 2159.07 2185.77 2151.37"/>
      <polygon class="cls-1" points="2185.77 2174.52 2185.77 2184.89 2140.12 2192.59 2140.12 2182.22 2185.77 2174.52"/>
      <polygon class="cls-1" points="2185.77 2197.67 2185.77 2208.04 2140.12 2215.74 2140.12 2205.37 2185.77 2197.67"/>
      <polygon class="cls-1" points="2185.77 2220.82 2185.77 2231.2 2140.12 2238.89 2140.12 2228.52 2185.77 2220.82"/>
      <polygon class="cls-1" points="2185.77 2243.97 2185.77 2254.35 2146.15 2261.03 2140.12 2261.03 2140.12 2251.67 2185.77 2243.97"/>
    </g>
    <path class="cls-1" d="m2197.97,2092.27v13.56h-70.05v-13.56c4.91,0,8.88-3.98,8.88-8.88h52.29c0,4.9,3.97,8.88,8.88,8.88Z"/>
  </g>
  <path class="cls-1" d="m812.85,2055.04v164.84c0,23.99-21.26,43.5-47.4,43.5h-69.83v13.37h-32.17v-82.97h32.17v13.37h60.99v-139.34h-60.99v13.35h-32.17v-82.96h32.17v13.37h69.83c26.14,0,47.4,19.51,47.4,43.48Z"/>
  <path class="cls-1" d="m928.77,2166.57v35.65c0,13.09-.65,22.69-1.97,28.81-1.32,6.1-4.13,11.81-8.45,17.11-4.31,5.3-9.85,9.21-16.62,11.73-6.77,2.53-14.54,3.79-23.32,3.79-9.8,0-18.09-1.08-24.9-3.24-6.81-2.16-12.08-5.41-15.86-9.76-3.76-4.35-6.45-9.62-8.06-15.8-1.61-6.19-2.42-15.46-2.42-27.81v-37.31c0-13.53,1.46-24.1,4.39-31.71s8.19-13.72,15.81-18.33c7.6-4.6,17.34-6.91,29.19-6.91,9.94,0,18.49,1.49,25.62,4.44,7.12,2.97,12.63,6.83,16.51,11.58,3.87,4.76,6.52,9.67,7.94,14.71,1.44,5.04,2.14,12.72,2.14,23.05Z"/>
  <path class="cls-1" d="m1316.33,2190.81h-57.38v31.49c0,6.58.47,10.83,1.43,12.73.95,1.9,2.78,2.85,5.49,2.85,3.36,0,5.61-1.26,6.75-3.79,1.13-2.52,1.7-7.41,1.7-14.65v-19.2h42.02v10.75c0,9-.57,15.91-1.7,20.74-1.14,4.83-3.79,9.98-7.95,15.47s-9.46,9.6-15.85,12.34c-6.4,2.74-14.43,4.11-24.08,4.11s-17.63-1.35-24.8-4.06c-7.17-2.71-12.75-6.42-16.73-11.14-3.99-4.72-6.75-9.91-8.28-15.58-1.54-5.67-2.3-13.92-2.3-24.74v-42.46c0-12.73,1.72-22.77,5.16-30.12,3.44-7.35,9.07-12.98,16.9-16.9,7.83-3.91,16.82-5.87,26.99-5.87,12.43,0,22.69,2.36,30.78,7.08,8.08,4.72,13.75,10.97,17.01,18.76,3.25,7.79,4.88,18.75,4.88,32.86v19.31Zm-44.44-23.7v-10.64c0-7.53-.4-12.4-1.21-14.59-.81-2.19-2.45-3.29-4.94-3.29-3.07,0-4.98.93-5.71,2.8-.73,1.87-1.1,6.9-1.1,15.09v10.64h12.95Z"/>
  <path class="cls-1" d="m1018.88,2115.43c-7.5-3.51-16.61-5.27-27.33-5.27-6.81,0-13.08.88-18.84,2.63-2.85.86-5.57,1.95-8.15,3.24-7.83,3.92-13.46,9.55-16.89,16.89-3.45,7.36-5.16,17.39-5.16,30.13v42.46c0,2.3.04,4.48.1,6.55.38,6.14,1.25,11.1,2.64,14.91,1.89,5.23,5.43,9.46,10.58,12.67,5.16,3.21,11.73,4.82,19.7,4.82,4.61,0,9.01-.88,13.22-2.64,4.21-1.75,8.2-4.36,12.02-7.81v10.99c0,6.3-.55,10.44-1.65,12.41-1.1,1.99-3.33,2.97-6.7,2.97-4.68,0-7.02-3.21-7.02-9.65h-43.01c.29,14.04,4.72,23.46,13.27,28.26,8.56,4.78,19.9,7.19,34.01,7.19,11.48,0,21.02-1.31,28.59-3.89,7.58-2.6,13.48-6.38,17.72-11.3,4.25-4.94,6.72-9.63,7.41-14.04.69-4.43,1.05-14.21,1.05-29.36v-112.13h-25.55Zm-18.88,83.72c0,8.27-.44,13.56-1.32,15.91-.88,2.34-2.78,3.5-5.71,3.5-2.56,0-4.25-.97-5.04-2.9-.57-1.38-.94-3.89-1.1-7.56-.07-1.5-.1-3.21-.1-5.11v-48.94c0-1.92.05-3.64.16-5.16h0c.13-5.32.47-8.69,1.05-10.15.73-1.86,2.63-2.8,5.71-2.8,2.48,0,4.13,1.1,4.94,3.29.33.88.57,2.16.76,3.88,0,.01.01.03.01.04.43,2.27.65,5.91.65,10.9v45.1Z"/>
  <path class="cls-1" d="m1428.79,2170.4h-41.8v-16.79c0-5.85-.48-9.82-1.43-11.9-.95-2.08-2.71-3.13-5.27-3.13s-4.28.92-5.16,2.74c-.88,1.83-1.32,5.92-1.32,12.29v68.69c0,5.19.66,9.09,1.97,11.69,1.32,2.6,3.25,3.9,5.82,3.9,3,0,5.03-1.35,6.09-4.06,1.06-2.71,1.59-7.83,1.59-15.36v-17.34h39.5c-.07,11.63-.49,20.35-1.26,26.17-.77,5.82-3.22,11.78-7.35,17.88-4.13,6.11-9.53,10.72-16.18,13.82-6.66,3.11-14.89,4.66-24.69,4.66-12.51,0-22.42-2.14-29.73-6.42-7.32-4.28-12.49-10.28-15.53-17.99-3.04-7.72-4.55-18.67-4.55-32.86v-41.37c0-12.36,1.24-21.69,3.73-27.98,2.49-6.29,7.79-11.9,15.91-16.84s17.99-7.41,29.62-7.41,21.43,2.45,29.62,7.35c8.19,4.9,13.64,11.08,16.35,18.54,2.7,7.46,4.06,18.03,4.06,31.71Z"/>
  <rect class="cls-1" x="1060.24" y="2115.43" width="45.64" height="145.6"/>
  <path class="cls-1" d="m1544.44,2160.64v100.39h-44.33v-102.48c0-7.02-.29-11.95-.86-14.82-.21-2.02-.48-3.53-.84-4.49-.81-2.19-2.46-3.29-4.94-3.29-3.07,0-4.98.94-5.71,2.8-.48,1.21-.8,3.79-.97,7.69-.34,2.67-.51,6.23-.51,10.69v103.9h-44.33v-177.64h44.33v29.43h25.49c.35-.03.71-.03,1.06-.03,7.75,0,14.36,1.97,19.81,5.93,5.45,3.95,8.78,8.51,9.98,13.65,1.21,5.16,1.82,14.58,1.82,28.26Z"/>
  <path id="Goutte-2" data-name="Goutte" class="cls-3" d="m904.04,2205.15c0,18.69-11.67,33.84-26.07,33.84s-26.07-15.15-26.07-33.84,26.07-67.68,26.07-67.68c0,0,26.07,48.99,26.07,67.68Z"/>
  <path class="cls-1" d="m1208.24,2221.39l-46.8,101.14,5.08-59.4h-12.73c-10.1,0-17.23-.41-21.4-1.25-4.17-.82-7.63-2.74-10.38-5.74-2.75-2.99-4.18-6.42-4.29-10.28-.11-3.87,1.12-12.95,3.7-27.24l13.15-73h-9.55l4.1-22.75h9.55l4.08-22.63h44.46l-4.08,22.63h11.97l-4.1,22.75h-11.97l-13.85,75.31,43.06.46Z"/>
  <rect class="cls-3" x="1054.78" y="2119.71" width="52.58" height="12.6" transform="translate(-338.26 209.21) rotate(-9.57)"/>
  <rect class="cls-3" x="1054.78" y="2142.86" width="52.58" height="12.6" transform="translate(-342.11 209.53) rotate(-9.57)"/>
  <rect class="cls-3" x="1054.78" y="2166.02" width="52.58" height="12.6" transform="translate(-345.96 209.85) rotate(-9.57)"/>
  <rect class="cls-3" x="1054.78" y="2189.17" width="52.58" height="12.6" transform="translate(-349.8 210.17) rotate(-9.57)"/>
  <rect class="cls-3" x="1054.78" y="2212.32" width="52.58" height="12.6" transform="translate(-353.65 210.5) rotate(-9.57)"/>
  <rect class="cls-3" x="1054.78" y="2235.47" width="52.58" height="12.6" transform="translate(-357.5 210.82) rotate(-9.57)"/>
  <rect class="cls-3" x="1054.78" y="2258.62" width="52.58" height="12.6" transform="translate(-361.34 211.14) rotate(-9.57)"/>
  <path class="cls-1" d="m1117.72,2092.27v13.56h-70.05v-13.56c4.91,0,8.88-3.98,8.88-8.88h52.29c0,4.9,3.97,8.88,8.88,8.88Z"/>
  <rect class="cls-1" x="2140.12" y="2102.96" width="45.65" height="12.47"/>
</svg>