<?xml version="1.0" encoding="UTF-8"?>
<svg id="Calque_1" data-name="Calque 1" xmlns="http://www.w3.org/2000/svg" viewBox="0 0 1298.78 1948.29">
  <defs>
    <style>
      .cls-1 {
        stroke-width: 0px;
      }
    </style>
  </defs>
  <path class="cls-1" d="m556.29,208.64c0,51.09-41.41,92.5-92.5,92.5v-40c28.95,0,52.5-23.55,52.5-52.5h40Z"/>
  <rect class="cls-1" x="508.39" y="181.85" width="60.68" height="20.57"/>
  <path class="cls-1" d="m13.56,356.09c0-51.09,41.41-92.5,92.5-92.5v40c-28.95,0-52.5,23.55-52.5,52.5H13.56Z"/>
  <rect class="cls-1" x=".77" y="362.31" width="60.68" height="20.57" transform="translate(62.23 745.2) rotate(180)"/>
  <rect class="cls-1" x="416.64" y="273.3" width="60.68" height="20.57" transform="translate(730.57 -163.39) rotate(90)"/>
  <path class="cls-1" d="m390.91,768.8c51.09,0,92.5,41.41,92.5,92.5h-40c0-28.95-23.55-52.5-52.5-52.5v-40Z"/>
  <rect class="cls-1" x="435.51" y="867.83" width="60.68" height="20.57"/>
  <rect class="cls-1" x="508.39" width="60.68" height="20.57"/>
  <rect class="cls-1" x="518.74" y="26.79" width="40" height="148.83"/>
  <rect class="cls-1" x="92.23" y="273.3" width="60.68" height="20.57" transform="translate(-161.02 406.16) rotate(-90)"/>
  <path class="cls-1" d="m102.84,805.72c-51.09,0-92.5-41.41-92.5-92.5h40c0,28.95,23.55,52.5,52.5,52.5v40Z"/>
  <rect class="cls-1" x="89.01" y="777.88" width="60.68" height="20.57" transform="translate(907.51 668.81) rotate(90)"/>
  <rect class="cls-1" y="686.42" width="60.68" height="20.57" transform="translate(60.68 1393.42) rotate(-180)"/>
  <rect class="cls-1" x="264.62" y="138.04" width="40" height="291.09" transform="translate(1.03 568.21) rotate(-90)"/>
  <rect class="cls-1" x="969.99" y="600.49" width="60.68" height="20.57" transform="translate(1611.11 -389.55) rotate(90)"/>
  <rect class="cls-1" x="755.78" y="402.74" width="40" height="416.09" transform="translate(165 1386.56) rotate(-90)"/>
  <rect class="cls-1" x="344.06" y="777.88" width="60.68" height="20.57" transform="translate(1162.56 413.76) rotate(90)"/>
  <path class="cls-1" d="m535.99,987.42c-51.09,0-92.5-41.41-92.5-92.5h40c0,28.95,23.55,52.5,52.5,52.5v40Z"/>
  <rect class="cls-1" x="1060.36" y="1232.92" width="60.68" height="20.57"/>
  <path class="cls-1" d="m1163.09,1352.52c-51.09,0-92.5-41.41-92.5-92.5h40c0,28.95,23.55,52.5,52.5,52.5v40Z"/>
  <rect class="cls-1" x="520.88" y="603" width="60.68" height="20.57" transform="translate(1164.51 62.06) rotate(90)"/>
  <path class="cls-1" d="m441.91,683.42c0-51.09,41.41-92.5,92.5-92.5v40c-28.95,0-52.5,23.55-52.5,52.5h-40Z"/>
  <rect class="cls-1" x="522.16" y="957.77" width="60.68" height="20.57" transform="translate(-415.56 1520.56) rotate(-90)"/>
  <path class="cls-1" d="m661.35,894.48c0,51.09-41.41,92.5-92.5,92.5v-40c28.95,0,52.5-23.55,52.5-52.5h40Z"/>
  <rect class="cls-1" x="430.5" y="689.48" width="60.68" height="20.57"/>
  <path class="cls-1" d="m534.42,808.61c-51.09,0-92.5-41.41-92.5-92.5h40c0,28.95,23.55,52.5,52.5,52.5v40Z"/>
  <rect class="cls-1" x="611.64" y="867.69" width="60.68" height="20.57" transform="translate(1283.97 1755.95) rotate(-180)"/>
  <path class="cls-1" d="m568.23,768.97c51.09,0,92.5,41.41,92.5,92.5h-40c0-28.95-23.55-52.5-52.5-52.5v-40Z"/>
  <rect class="cls-1" x="1060.25" y="689.64" width="60.68" height="20.57" transform="translate(2181.19 1399.85) rotate(-180)"/>
  <path class="cls-1" d="m1016.84,590.92c51.09,0,92.5,41.41,92.5,92.5h-40c0-28.95-23.55-52.5-52.5-52.5v-40Z"/>
  <rect class="cls-1" x="1149.71" y="1321.09" width="60.68" height="20.57" transform="translate(2511.42 151.32) rotate(90)"/>
  <path class="cls-1" d="m1196.56,1312.51c51.09,0,92.5,41.41,92.5,92.5h-40c0-28.95-23.55-52.5-52.5-52.5v-40Z"/>
  <rect class="cls-1" x="521.38" y="778.04" width="60.68" height="20.57" transform="translate(1340.05 236.61) rotate(90)"/>
  <rect class="cls-1" x="226.88" y="677.15" width="40" height="222.03" transform="translate(-541.29 1035.04) rotate(-90)"/>
  <rect class="cls-1" x="1070.59" y="716.43" width="40" height="510.27"/>
  <rect class="cls-1" x="1238.1" y="1411.23" width="60.68" height="20.57" transform="translate(2536.89 2843.04) rotate(-180)"/>
  <rect class="cls-1" x="1248.44" y="1438.03" width="40" height="510.27"/>
  <rect class="cls-1" x="11.11" y="389.11" width="40" height="291.09"/>
  <rect class="cls-1" x="1119.58" y="1318.51" width="60.68" height="20.57" transform="translate(2478.71 178.87) rotate(90)"/>
</svg>